<?xml version="1.0" standalone="no"?>
<!DOCTYPE svg PUBLIC "-//W3C//DTD SVG 20010904//EN"
 "http://www.w3.org/TR/2001/REC-SVG-20010904/DTD/svg10.dtd">
<svg version="1.0" xmlns="http://www.w3.org/2000/svg"
 width="16.000000pt" height="16.000000pt" viewBox="0 0 16.000000 16.000000"
 preserveAspectRatio="xMidYMid meet">
<metadata>
Created by potrace 1.11, written by Peter Selinger 2001-2013
</metadata>
<g transform="translate(0.000000,16.000000) scale(0.006154,-0.006154)"
fill="#000000" stroke="none">
<path d="M710 2355 c-79 -22 -172 -68 -259 -127 -128 -87 -119 -68 -126 -258
-10 -273 -23 -534 -30 -605 -2 -22 -7 -76 -10 -120 -3 -44 -8 -91 -10 -105 -2
-14 -7 -56 -10 -95 -3 -38 -10 -99 -15 -135 -5 -36 -12 -92 -16 -124 -3 -33
-7 -67 -9 -76 -2 -9 -6 -41 -10 -70 -4 -29 -8 -61 -10 -72 -2 -10 -2 -18 0
-18 2 0 56 29 119 64 349 195 599 273 868 270 l117 -1 -4 31 c-2 17 -9 69 -15
116 -6 47 -13 96 -15 110 -2 14 -6 54 -10 90 -3 36 -8 72 -10 80 -2 8 -7 48
-10 88 -4 41 -8 81 -10 90 -1 9 -6 53 -9 97 -4 44 -9 91 -11 105 -2 14 -7 61
-10 105 -3 44 -8 98 -10 120 -7 58 -14 137 -21 245 -4 52 -7 105 -8 117 -2 33
-13 39 -96 63 -100 29 -283 36 -360 15z m246 -180 c27 -8 61 -25 77 -37 l27
-23 -36 -70 c-20 -38 -40 -74 -44 -78 -4 -5 -22 -1 -40 8 -39 20 -117 26 -169
13 -55 -14 -109 -61 -117 -103 -13 -70 16 -97 127 -115 120 -19 219 -47 258
-73 79 -53 119 -202 90 -342 -16 -74 -81 -203 -134 -262 -100 -114 -264 -195
-403 -200 -79 -2 -178 22 -221 56 l-24 18 39 69 c54 96 81 144 100 180 l16 31
50 -24 c129 -62 304 -17 358 93 48 97 13 154 -103 170 -18 3 -54 9 -82 15 -27
6 -66 13 -85 16 -47 6 -119 39 -148 66 -50 46 -67 95 -67 192 0 81 3 97 32
155 40 82 88 138 159 186 105 69 232 91 340 59z"/>
<path d="M2127 2172 c106 -469 256 -932 364 -1129 16 -29 29 -54 29 -56 0 -3
-21 0 -47 5 -27 4 -59 11 -73 13 -14 3 -45 7 -70 11 -25 3 -56 7 -70 10 -37 6
-219 6 -265 -1 -22 -3 -65 -11 -95 -17 -30 -6 -60 -13 -67 -14 -68 -13 -254
-94 -369 -162 l-71 -41 -134 0 c-205 0 -339 -21 -527 -83 -128 -42 -358 -150
-497 -233 -44 -26 -93 -54 -109 -62 l-29 -15 6 33 c3 19 15 86 26 149 11 63
23 135 26 160 3 25 8 56 10 70 2 14 7 45 10 70 3 25 8 56 10 70 2 14 7 52 10
84 3 33 8 73 10 90 6 44 13 112 20 181 3 33 7 83 10 110 5 53 13 151 20 250
13 179 26 525 19 525 -2 0 -14 -10 -26 -22 -17 -17 -22 -35 -24 -97 -3 -84
-15 -316 -19 -371 -1 -19 -6 -74 -9 -121 -4 -47 -8 -101 -11 -120 -2 -19 -7
-63 -10 -99 -3 -36 -8 -76 -10 -90 -2 -14 -7 -54 -11 -90 -4 -36 -8 -67 -9
-70 -2 -8 -17 -121 -21 -155 -2 -16 -10 -73 -19 -125 -9 -52 -18 -108 -21
-125 -2 -16 -6 -41 -9 -55 -3 -14 -7 -41 -10 -60 -4 -19 -11 -55 -16 -80 -6
-25 -13 -58 -16 -75 -2 -16 -11 -57 -18 -90 -8 -32 -12 -61 -10 -63 4 -4 93
43 144 77 l24 15 -7 -44 c-4 -25 -10 -58 -13 -74 -3 -21 -1 -26 9 -20 7 4 101
65 208 134 491 318 641 376 935 359 l110 -6 55 37 c56 38 170 98 225 118 134
49 338 58 499 22 26 -6 63 -13 82 -16 52 -8 60 -10 153 -33 46 -12 86 -19 89
-17 2 3 -11 31 -29 62 l-32 57 39 -6 c21 -4 54 -9 71 -13 l32 -6 -55 113
c-140 284 -250 612 -369 1105 -31 128 -40 153 -59 162 -22 10 -22 9 11 -136z
m217 -1200 c44 -7 63 -15 77 -33 10 -13 19 -27 19 -31 0 -7 1 -8 -115 17 -44
9 -105 20 -135 24 -73 8 -282 7 -345 -2 l-50 -7 50 15 c28 8 79 19 115 24 75
10 297 6 384 -7z m-557 -38 c-3 -3 -12 -4 -19 -1 -8 3 -5 6 6 6 11 1 17 -2 13
-5z m-792 -200 c-174 -37 -385 -139 -668 -325 l-87 -58 0 28 c0 25 9 34 68 69
258 154 578 290 677 290 18 0 22 -2 10 -4z"/>
<path d="M1663 2264 c-116 -30 -207 -104 -261 -211 -48 -95 -62 -160 -62 -289
0 -269 133 -481 353 -563 82 -30 119 -36 227 -36 81 1 103 4 150 26 80 37 160
123 143 153 -4 8 -44 52 -89 99 l-81 84 -39 -42 c-111 -117 -313 -58 -398 117
-59 122 -67 292 -18 388 31 62 88 108 142 114 48 6 117 -10 152 -36 16 -11 33
-17 37 -12 14 16 81 122 81 128 0 9 -83 54 -130 71 -62 22 -145 26 -207 9z"/>
</g>
</svg>
